C:\Users\u0088756\Documents\documenten\software\SoftwareProjects\DC_TrackingSimulation\Data\Patient2\InputData\GRF_data.mot
nRows=10
nColumns=19

name C:\Users\u0088756\Documents\documenten\software\SoftwareProjects\DC_TrackingSimulation\Data\Patient2\InputData\GRF_data.mot
datacolumns 19
datarows 10
range 0.0000000000 0.0090000000
endheader
time	ground_force_vx	ground_force_vy	ground_force_vz	ground_force_px	ground_force_py	ground_force_pz	1_ground_force_vx	1_ground_force_vy	1_ground_force_vz	1_ground_force_px	1_ground_force_py	1_ground_force_pz	ground_torque_x	ground_torque_y	ground_torque_z	1_ground_torque_x	1_ground_torque_y	1_ground_torque_z
        0.0000000000	        0.0000000000	        0.0000000000	        0.0000000000	        0.0012747243	       -0.0001152013	       -0.0003753368	       88.2661910470	     1023.2384627626	      -96.9400753648	        0.1679757348	       -0.0001152013	        0.1075990271	        0.0000000000	        0.0000000000	        0.0000000000	        0.0000000000	       12.9522487710	        0.0000000000	
        0.0010000000	        0.0000000000	        0.0000000000	        0.0000000000	        0.0022437318	       -0.0001133155	       -0.0003731753	       88.6964564608	     1023.1027781150	      -96.8294457067	        0.1684392160	       -0.0001133155	        0.1076356337	        0.0000000000	        0.0000000000	        0.0000000000	        0.0000000000	       12.9306578931	        0.0000000000	
        0.0020000000	        0.0000000000	        0.0000000000	        0.0000000000	        0.0032127392	       -0.0001114298	       -0.0003710138	       89.1349226642	     1022.9400438458	      -96.7076649816	        0.1688991125	       -0.0001114298	        0.1076700824	        0.0000000000	        0.0000000000	        0.0000000000	        0.0000000000	       12.9099395263	        0.0000000000	
        0.0030000000	        0.0000000000	        0.0000000000	        0.0000000000	        0.0041817467	       -0.0001095440	       -0.0003688524	       89.5816309026	     1022.7496475444	      -96.5746255012	        0.1693553808	       -0.0001095440	        0.1077023640	        0.0000000000	        0.0000000000	        0.0000000000	        0.0000000000	       12.8901010477	        0.0000000000	
        0.0040000000	        0.0000000000	        0.0000000000	        0.0000000000	        0.0051507543	       -0.0001076582	       -0.0003666909	       90.0366103279	     1022.5309531121	      -96.4302236757	        0.1698079796	       -0.0001076582	        0.1077324708	        0.0000000000	        0.0000000000	        0.0000000000	        0.0000000000	       12.8711481710	        0.0000000000	
        0.0050000000	        0.0000000000	        0.0000000000	        0.0000000000	        0.0061199773	       -0.0001059763	       -0.0003646583	       90.4998778066	     1022.2833008534	      -96.2743601404	        0.1702570846	       -0.0001059763	        0.1077602672	        0.0000000000	        0.0000000000	        0.0000000000	        0.0000000000	       12.8530849398	        0.0000000000	
        0.0060000000	        0.0000000000	        0.0000000000	        0.0000000000	        0.0070892004	       -0.0001042945	       -0.0003626258	       90.9714377405	     1022.0060076106	      -96.1069398775	        0.1707024423	       -0.0001042945	        0.1077858772	        0.0000000000	        0.0000000000	        0.0000000000	        0.0000000000	       12.8359137234	        0.0000000000	
        0.0070000000	        0.0000000000	        0.0000000000	        0.0000000000	        0.0080584235	       -0.0001026127	       -0.0003605932	       91.4512818963	     1021.6983669387	      -95.9278723354	        0.1711440168	       -0.0001026127	        0.1078092968	        0.0000000000	        0.0000000000	        0.0000000000	        0.0000000000	       12.8196352127	        0.0000000000	
        0.0080000000	        0.0000000000	        0.0000000000	        0.0000000000	        0.0090276466	       -0.0001009308	       -0.0003585606	       91.9393892481	     1021.3596493242	      -95.7370715457	        0.1715817736	       -0.0001009308	        0.1078305236	        0.0000000000	        0.0000000000	        0.0000000000	        0.0000000000	       12.8042484178	        0.0000000000	
        0.0090000000	        0.0000000000	        0.0000000000	        0.0000000000	        0.0099968697	       -0.0000992490	       -0.0003565280	       92.4357258309	     1020.9891024456	      -95.5344562357	        0.1720156805	       -0.0000992490	        0.1078495566	        0.0000000000	        0.0000000000	        0.0000000000	        0.0000000000	       12.7897506670	        0.0000000000	
